<?xml version="1.0" standalone="no"?><!DOCTYPE svg PUBLIC "-//W3C//DTD SVG 1.1//EN" "http://www.w3.org/Graphics/SVG/1.1/DTD/svg11.dtd"><svg t="1714549569379" class="icon" viewBox="0 0 1024 1024" version="1.1" xmlns="http://www.w3.org/2000/svg" p-id="7712" width="48" height="48" xmlns:xlink="http://www.w3.org/1999/xlink"><path d="M122.112664 953.98846l816.371172-407.954319c0.723477-0.342808 1.411139-0.689708 2.099824-1.051959l1.107217-0.550539 0-0.077771c11.644201-6.757914 19.488867-19.377326 19.488867-33.827433 0-14.452153-7.844665-27.070542-19.488867-33.828456l0-0.228197L120.241037 65.955154c-1.14508-0.649799-2.310625-1.24127-3.51301-1.77646l-2.481518-1.240247-0.230244 0.170892c-4.047176-1.431605-8.41874-2.196015-12.96222-2.196015-21.589714 0-39.096437 17.506722-39.096437 39.096437 0 0.192382 0 0.382717 0 0.593518l0 821.276902 0.01842 0c0.438998 21.210068 17.754363 38.255279 39.078017 38.255279C108.80559 960.13546 116.040365 957.887256 122.112664 953.98846z" fill="#cdcdcd" p-id="7713"></path></svg>